<?xml version="1.0" encoding="utf-8"?>
<!-- Generator: Adobe Illustrator 25.1.0, SVG Export Plug-In . SVG Version: 6.00 Build 0)  -->
<svg version="1.1" id="Layer_1" xmlns="http://www.w3.org/2000/svg" xmlns:xlink="http://www.w3.org/1999/xlink" x="0px" y="0px"
	 viewBox="0 0 27.6 22.1" style="enable-background:new 0 0 27.6 22.1;" xml:space="preserve"
  width="200px"
     >
    
<style type="text/css">
    
	.st0{fill:#FFFFFF;}
</style>
<g id="Layer_2_1_">
	<g id="Layer_17">
		<path class="st0" d="M12.4,2c-0.5,0-0.9,0.4-0.9,0.9s0.4,0.8,0.9,0.8c0.5,0,0.8-0.4,0.8-0.9C13.3,2.3,12.9,2,12.4,2L12.4,2z"/>
		<path class="st0" d="M26.5,0h-0.5v7.9c-0.1,1-0.5,1.3-1.3,1.3h-3.2c-0.8,0-1.3-0.4-1.4-1.2V5.8c0-0.9-0.2-1.2-1-1.2h-0.5v3.2
			c-0.1,1-0.5,1.3-1.3,1.3h-2.8c-0.8,0-1.3-0.4-1.3-1.2V5.8c0-0.9-0.2-1.2-1-1.2h-0.5v3.2c-0.1,0.9-0.5,1.3-1.3,1.3H8.1V6.8
			c0-2.2-1.3-3.6-3.3-3.6h0c-2,0-3.3,1.5-3.3,3.9c0,1.7,0.9,2.6,2,3.1c1,0.4,2.2,0.5,3.2,0.6v10.4C6.8,21.7,7,22,7.7,22h0.4v-4.6
			c0-1.5,1.1-2.3,2-2.3c1.2,0,1.9,0.6,1.9,2.2v3.8c0,0.6,0.3,0.9,1,0.9h0.4v-4.8c0-2.4-1.2-3.5-3.1-3.5c-0.7,0-1.6,0.3-2.2,1.4v-4.5
			h2.6c0.7,0,1.3-0.3,1.7-0.7c0.4,0.4,1,0.6,1.7,0.7h3.5c0.7,0,1.3-0.3,1.7-0.7c0.4,0.4,1,0.6,1.7,0.7h3.9c2-0.1,2.5-1.7,2.5-3.4
			V1.2C27.6,0.3,27.3,0,26.5,0z M6.8,9.2c-0.7,0-1.4,0-1.9-0.1C3.7,8.8,2.9,8.3,2.9,6.8c0-1.4,0.7-2.3,1.8-2.3c0,0,0.1,0,0.1,0
			C6.9,4.6,6.8,6.7,6.8,9.2z"/>
		<path class="st0" d="M4.1,15c0.8,0,1.8,0.5,2.1,1.1h0.1v-0.6c0-1.2-1-1.8-2.2-1.8c-2.4,0-4,2-4,4.3c0,2.6,2.2,4.1,3.9,4.1
			c1.7,0,2.3-0.9,2.3-1.4v-0.6H6.1c-0.4,0.5-1.2,0.7-2,0.7c-1.3,0-2.7-0.9-2.7-3C1.4,16.2,2.5,15,4.1,15z"/>
		<path class="st0" d="M16.9,13.8c-1.8,0-2.8,1-2.8,1.7v0.7h0.1c0.5-0.6,1.3-1.1,2.6-1.1c1.3,0,1.9,0.5,1.9,1.7v0.4h-1.1
			c-2.4,0-3.8,0.9-3.8,2.7c0,1.4,1.4,2.4,3.1,2.4c2.3,0,3.1-1.2,3.1-2.8v-2.5C20.1,14.8,19,13.8,16.9,13.8z M18.7,19.2
			c0,1.2-0.5,1.6-1.7,1.6c-1,0-1.7-0.6-1.7-1.3c0-0.9,0.7-1.4,2.4-1.4h1.1V19.2z"/>
		<path class="st0" d="M24.1,13.8c-2.1,0-3.4,1.3-3.4,3.6V21c0,0.6,0.4,0.9,0.9,0.9H22v-4.6c0-1.6,0.7-2.3,1.9-2.3
			c1.4,0,2.1,0.6,2.1,2.3v3.7c0,0.6,0.3,0.9,0.9,0.9h0.5v-4.6C27.3,14.9,26.1,13.8,24.1,13.8z"/>
		<path class="st0" d="M17.5,12.6c0-0.5,0.4-0.9,0.9-0.9c0,0,0,0,0,0c0.5,0,0.9,0.4,0.9,0.9c0,0.5-0.4,0.9-0.9,0.9
			C17.9,13.5,17.5,13.1,17.5,12.6C17.5,12.6,17.5,12.6,17.5,12.6z"/>
		<path class="st0" d="M20.4,12.6c0-0.5,0.4-0.9,0.9-0.9c0,0,0,0,0,0c0.5,0,0.9,0.4,0.9,0.9c0,0.5-0.4,0.9-0.9,0.9
			C20.8,13.5,20.4,13.1,20.4,12.6C20.4,12.6,20.4,12.6,20.4,12.6z"/>
	</g>
</g>
</svg>
